<svg preserveAspectRatio="none" id="visual" viewBox="0 0 540 960" width="540" height="960" xmlns="http://www.w3.org/2000/svg" xmlns:xlink="http://www.w3.org/1999/xlink" version="1.1">
    <g transform="translate(540, 960)">
        <path d="M-405 0C-388 -41.3 -371.1 -82.7 -346.2 -112.5C-321.3 -142.3 -288.5 -160.6 -273.4 -198.7C-258.4 -236.8 -261 -294.6 -238.1 -327.7C-215.1 -360.7 -166.6 -368.8 -122.7 -377.6C-78.7 -386.3 -39.4 -395.7 0 -405L0 0Z" fill="#000046"></path>
        <path d="M-324 0C-310.4 -33.1 -296.8 -66.1 -276.9 -90C-257 -113.8 -230.8 -128.5 -218.8 -158.9C-206.7 -189.4 -208.8 -235.7 -190.4 -262.1C-172.1 -288.5 -133.3 -295.1 -98.1 -302.1C-63 -309.1 -31.5 -316.5 0 -324L0 0Z" fill="#00024e"></path>
        <path d="M-243 0C-232.8 -24.8 -222.6 -49.6 -207.7 -67.5C-192.8 -85.4 -173.1 -96.4 -164.1 -119.2C-155 -142.1 -156.6 -176.8 -142.8 -196.6C-129.1 -216.4 -100 -221.3 -73.6 -226.5C-47.2 -231.8 -23.6 -237.4 0 -243L0 0Z" fill="#070a56"></path>
        <path d="M-162 0C-155.2 -16.5 -148.4 -33.1 -138.5 -45C-128.5 -56.9 -115.4 -64.2 -109.4 -79.5C-103.3 -94.7 -104.4 -117.9 -95.2 -131.1C-86 -144.3 -66.6 -147.5 -49.1 -151C-31.5 -154.5 -15.7 -158.3 0 -162L0 0Z" fill="#15115f"></path>
        <path d="M-81 0C-77.6 -8.3 -74.2 -16.5 -69.2 -22.5C-64.3 -28.5 -57.7 -32.1 -54.7 -39.7C-51.7 -47.4 -52.2 -58.9 -47.6 -65.5C-43 -72.1 -33.3 -73.8 -24.5 -75.5C-15.7 -77.3 -7.9 -79.1 0 -81L0 0Z" fill="#1b1563"></path>
    </g>
</svg>